<?xml version="1.0" encoding="utf-8"?>
<!-- Generator: Adobe Illustrator 27.5.0, SVG Export Plug-In . SVG Version: 6.00 Build 0)  -->
<svg version="1.1" id="Layer_1" xmlns="http://www.w3.org/2000/svg" xmlns:xlink="http://www.w3.org/1999/xlink" x="0px" y="0px"
	 viewBox="0 0 800 800" style="enable-background:new 0 0 800 800;" xml:space="preserve">
<g>
	<rect style="fill:#FFFFFF;" width="800" height="800"/>
</g>
<g>
	<polygon style="fill:#FFFFFF;" points="228.208,160.042 137.522,56.199 46.837,160.042 73.598,160.042 73.598,264.79 
		201.447,264.79 201.447,160.042 	"/>
	<path d="M201.447,266.335H73.598c-0.854,0-1.546-0.691-1.546-1.545V161.587H46.837c-0.606,0-1.156-0.353-1.406-0.906
		c-0.251-0.553-0.157-1.201,0.241-1.657l90.685-103.843c0.592-0.67,1.739-0.67,2.331,0l90.686,103.843
		c0.398,0.456,0.492,1.105,0.241,1.657c-0.25,0.553-0.8,0.906-1.407,0.906h-25.214V264.79
		C202.994,265.644,202.302,266.335,201.447,266.335z M75.144,263.244h124.758V160.042c0-0.855,0.691-1.546,1.545-1.546h23.359
		l-87.284-99.948L50.24,158.496h23.358c0.854,0,1.546,0.691,1.546,1.546V263.244z"/>
</g>
<g>
	<path style="fill:#DDD6FF;" d="M104.863,173.407v35.108c0,16.864,13.669,30.538,30.54,30.538h4.239
		c16.87,0,30.541-13.673,30.541-30.538v-35.108H104.863z"/>
	<path d="M139.642,240.598h-4.239c-17.691,0-32.086-14.392-32.086-32.083v-35.108c0-0.854,0.691-1.545,1.546-1.545h65.319
		c0.854,0,1.545,0.691,1.545,1.545v35.108C171.728,226.206,157.333,240.598,139.642,240.598z M106.409,174.953v33.563
		c0,15.986,13.006,28.992,28.995,28.992h4.239c15.989,0,28.995-13.006,28.995-28.992v-33.563H106.409z"/>
</g>
<g>
	<path d="M161.585,174.953c-0.855,0-1.546-0.691-1.546-1.546V147.54c0-11.551-9.398-20.946-20.952-20.946h-3.127
		c-11.554,0-20.952,9.395-20.952,20.946v25.867c0,0.855-0.691,1.546-1.546,1.546c-0.854,0-1.545-0.691-1.545-1.546V147.54
		c0-13.253,10.787-24.038,24.044-24.038h3.127c13.257,0,24.044,10.784,24.044,24.038v25.867
		C163.13,174.261,162.439,174.953,161.585,174.953z"/>
</g>
<g>
	<g>
		<path style="fill:#939598;" d="M556.292,542.573c0,14.142-11.466,25.608-25.607,25.608H270.613
			c-14.141,0-25.607-11.467-25.607-25.608V208.234c0-14.141,11.466-25.607,25.607-25.607h260.071
			c14.142,0,25.607,11.466,25.607,25.607V542.573z"/>
		<path d="M530.685,569.727H270.613c-14.971,0-27.153-12.182-27.153-27.153V208.234c0-14.972,12.182-27.153,27.153-27.153h260.071
			c14.972,0,27.153,12.182,27.153,27.153v334.339C557.838,557.545,545.656,569.727,530.685,569.727z M270.613,184.173
			c-13.269,0-24.061,10.792-24.061,24.062v334.339c0,13.27,10.792,24.062,24.061,24.062h260.071
			c13.268,0,24.062-10.792,24.062-24.062V208.234c0-13.269-10.793-24.062-24.062-24.062H270.613z"/>
	</g>
	<g>
		<rect x="275.852" y="218.903" style="fill:#FFFFFF;" width="249.592" height="171.792"/>
		<path d="M525.443,392.241H275.852c-0.854,0-1.545-0.691-1.545-1.545V218.903c0-0.854,0.691-1.545,1.545-1.545h249.592
			c0.855,0,1.546,0.691,1.546,1.545v171.792C526.989,391.55,526.298,392.241,525.443,392.241z M277.397,389.15h246.5v-168.7h-246.5
			V389.15z"/>
	</g>
	<g>
		<g>
			<path d="M277.436,451.326c-0.854,0-1.546-0.69-1.546-1.546v-29.055c0-0.854,0.691-1.546,1.546-1.546h29.058
				c0.854,0,1.546,0.691,1.546,1.546c0,0.855-0.691,1.546-1.546,1.546h-27.512v27.509
				C278.982,450.636,278.291,451.326,277.436,451.326z"/>
		</g>
		<g>
			<path d="M389.418,451.326c-0.854,0-1.545-0.69-1.545-1.546v-27.509h-27.516c-0.854,0-1.545-0.691-1.545-1.546
				c0-0.854,0.691-1.546,1.545-1.546h29.061c0.855,0,1.546,0.691,1.546,1.546v29.055
				C390.964,450.636,390.273,451.326,389.418,451.326z"/>
		</g>
		<g>
			<path d="M389.418,534.25h-29.061c-0.854,0-1.545-0.691-1.545-1.545c0-0.855,0.691-1.547,1.545-1.547h27.516v-27.515
				c0-0.854,0.691-1.546,1.545-1.546c0.855,0,1.546,0.691,1.546,1.546v29.061C390.964,533.559,390.273,534.25,389.418,534.25z"/>
		</g>
		<g>
			<path d="M306.498,534.25h-29.061c-0.854,0-1.546-0.691-1.546-1.545v-29.061c0-0.854,0.691-1.546,1.546-1.546
				s1.546,0.691,1.546,1.546v27.515h27.516c0.854,0,1.546,0.691,1.546,1.547C308.043,533.559,307.352,534.25,306.498,534.25z"/>
		</g>
		<g>
			<rect x="286.977" y="430.263" style="fill:#DDD6FF;" width="92.896" height="92.905"/>
			<path d="M379.872,524.713h-92.896c-0.854,0-1.546-0.691-1.546-1.545v-92.905c0-0.854,0.691-1.545,1.546-1.545h92.896
				c0.854,0,1.546,0.69,1.546,1.545v92.905C381.418,524.021,380.727,524.713,379.872,524.713z M288.522,521.621h89.804v-89.813
				h-89.804V521.621z"/>
		</g>
		<g>
			<path style="fill:#CAC5EB;" d="M310.453,496.591V465.7c0-12.686,10.283-22.972,22.975-22.972l0,0
				c12.686,0,22.975,10.285,22.975,22.972v30.891"/>
			<path d="M356.402,498.137c-0.854,0-1.546-0.692-1.546-1.546V465.7c0-11.814-9.613-21.427-21.429-21.427
				c-11.816,0-21.429,9.613-21.429,21.427v30.891c0,0.854-0.691,1.546-1.546,1.546c-0.855,0-1.546-0.692-1.546-1.546V465.7
				c0-13.52,11.002-24.518,24.521-24.518c13.52,0,24.521,10.998,24.521,24.518v30.891
				C357.948,497.444,357.256,498.137,356.402,498.137z"/>
		</g>
		<g>
			<path d="M342.515,455.498H324.34c-0.854,0-1.545-0.69-1.545-1.545s0.691-1.546,1.545-1.546h18.175
				c0.854,0,1.546,0.691,1.546,1.546S343.369,455.498,342.515,455.498z"/>
		</g>
		<g>
			<path d="M349.567,467.357h-32.28c-0.854,0-1.545-0.691-1.545-1.546c0-0.853,0.691-1.546,1.545-1.546h32.28
				c0.854,0,1.545,0.692,1.545,1.546C351.113,466.666,350.421,467.357,349.567,467.357z"/>
		</g>
		<g>
			<path d="M349.567,479.223h-32.28c-0.854,0-1.545-0.692-1.545-1.546c0-0.854,0.691-1.546,1.545-1.546h32.28
				c0.854,0,1.545,0.691,1.545,1.546C351.113,478.53,350.421,479.223,349.567,479.223z"/>
		</g>
		<g>
			<path d="M349.567,491.087h-32.28c-0.854,0-1.545-0.69-1.545-1.546c0-0.854,0.691-1.545,1.545-1.545h32.28
				c0.854,0,1.545,0.69,1.545,1.545C351.113,490.397,350.421,491.087,349.567,491.087z"/>
		</g>
	</g>
	<g>
		<g>
			<path style="fill:#FFE7AD;" d="M441.366,435.383c0,7.702-6.246,13.944-13.947,13.944c-7.702,0-13.951-6.242-13.951-13.944
				c0-7.704,6.249-13.951,13.951-13.951C435.12,421.432,441.366,427.679,441.366,435.383z"/>
			<path d="M427.419,450.874c-8.544,0-15.497-6.95-15.497-15.491c0-8.544,6.953-15.496,15.497-15.496
				c8.543,0,15.493,6.952,15.493,15.496C442.912,443.924,435.962,450.874,427.419,450.874z M427.419,422.978
				c-6.841,0-12.405,5.564-12.405,12.405c0,6.839,5.564,12.399,12.405,12.399c6.838,0,12.402-5.56,12.402-12.399
				C439.821,428.542,434.257,422.978,427.419,422.978z"/>
		</g>
		<g>
			<path style="fill:#FFE7AD;" d="M484.197,435.383c0,7.702-6.243,13.944-13.947,13.944c-7.698,0-13.948-6.242-13.948-13.944
				c0-7.704,6.25-13.951,13.948-13.951C477.954,421.432,484.197,427.679,484.197,435.383z"/>
			<path d="M470.25,450.874c-8.545,0-15.494-6.95-15.494-15.491c0-8.544,6.949-15.496,15.494-15.496
				c8.543,0,15.493,6.952,15.493,15.496C485.743,443.924,478.793,450.874,470.25,450.874z M470.25,422.978
				c-6.838,0-12.402,5.564-12.402,12.405c0,6.839,5.564,12.399,12.402,12.399c6.838,0,12.402-5.56,12.402-12.399
				C482.652,428.542,477.088,422.978,470.25,422.978z"/>
		</g>
		<g>
			<path style="fill:#FFE7AD;" d="M527.028,435.383c0,7.702-6.246,13.944-13.944,13.944c-7.704,0-13.948-6.242-13.948-13.944
				c0-7.704,6.244-13.951,13.948-13.951C520.782,421.432,527.028,427.679,527.028,435.383z"/>
			<path d="M513.084,450.874c-8.544,0-15.493-6.95-15.493-15.491c0-8.544,6.949-15.496,15.493-15.496
				c8.541,0,15.49,6.952,15.49,15.496C528.574,443.924,521.625,450.874,513.084,450.874z M513.084,422.978
				c-6.838,0-12.402,5.564-12.402,12.405c0,6.839,5.565,12.399,12.402,12.399c6.837,0,12.398-5.56,12.398-12.399
				C525.482,428.542,519.921,422.978,513.084,422.978z"/>
		</g>
		<g>
			<path style="fill:#FFE7AD;" d="M441.366,476.276c0,7.706-6.246,13.947-13.947,13.947c-7.702,0-13.951-6.241-13.951-13.947
				c0-7.699,6.249-13.949,13.951-13.949C435.12,462.327,441.366,468.577,441.366,476.276z"/>
			<path d="M427.419,491.77c-8.544,0-15.497-6.95-15.497-15.493c0-8.545,6.953-15.494,15.497-15.494
				c8.543,0,15.493,6.949,15.493,15.494C442.912,484.819,435.962,491.77,427.419,491.77z M427.419,463.874
				c-6.841,0-12.405,5.564-12.405,12.402c0,6.838,5.564,12.401,12.405,12.401c6.838,0,12.402-5.563,12.402-12.401
				C439.821,469.438,434.257,463.874,427.419,463.874z"/>
		</g>
		<g>
			<path style="fill:#FFE7AD;" d="M484.197,476.276c0,7.706-6.243,13.947-13.947,13.947c-7.698,0-13.948-6.241-13.948-13.947
				c0-7.699,6.25-13.949,13.948-13.949C477.954,462.327,484.197,468.577,484.197,476.276z"/>
			<path d="M470.25,491.77c-8.545,0-15.494-6.95-15.494-15.493c0-8.545,6.949-15.494,15.494-15.494
				c8.543,0,15.493,6.949,15.493,15.494C485.743,484.819,478.793,491.77,470.25,491.77z M470.25,463.874
				c-6.838,0-12.402,5.564-12.402,12.402c0,6.838,5.564,12.401,12.402,12.401c6.838,0,12.402-5.563,12.402-12.401
				C482.652,469.438,477.088,463.874,470.25,463.874z"/>
		</g>
		<g>
			<path style="fill:#FFE7AD;" d="M527.028,476.276c0,7.706-6.246,13.947-13.944,13.947c-7.704,0-13.948-6.241-13.948-13.947
				c0-7.699,6.244-13.949,13.948-13.949C520.782,462.327,527.028,468.577,527.028,476.276z"/>
			<path d="M513.084,491.77c-8.544,0-15.493-6.95-15.493-15.493c0-8.545,6.949-15.494,15.493-15.494
				c8.541,0,15.49,6.949,15.49,15.494C528.574,484.819,521.625,491.77,513.084,491.77z M513.084,463.874
				c-6.838,0-12.402,5.564-12.402,12.402c0,6.838,5.565,12.401,12.402,12.401c6.837,0,12.398-5.563,12.398-12.401
				C525.482,469.438,519.921,463.874,513.084,463.874z"/>
		</g>
		<g>
			<path style="fill:#FFE7AD;" d="M441.366,517.177c0,7.699-6.246,13.946-13.947,13.946c-7.702,0-13.951-6.247-13.951-13.946
				c0-7.704,6.249-13.95,13.951-13.95C435.12,503.227,441.366,509.473,441.366,517.177z"/>
			<path d="M427.419,532.668c-8.544,0-15.497-6.949-15.497-15.491c0-8.543,6.953-15.496,15.497-15.496
				c8.543,0,15.493,6.953,15.493,15.496C442.912,525.719,435.962,532.668,427.419,532.668z M427.419,504.772
				c-6.841,0-12.405,5.563-12.405,12.404c0,6.839,5.564,12.399,12.405,12.399c6.838,0,12.402-5.561,12.402-12.399
				C439.821,510.336,434.257,504.772,427.419,504.772z"/>
		</g>
		<g>
			<path style="fill:#FFE7AD;" d="M484.197,517.177c0,7.699-6.243,13.946-13.947,13.946c-7.698,0-13.948-6.247-13.948-13.946
				c0-7.704,6.25-13.95,13.948-13.95C477.954,503.227,484.197,509.473,484.197,517.177z"/>
			<path d="M470.25,532.668c-8.545,0-15.494-6.949-15.494-15.491c0-8.543,6.949-15.496,15.494-15.496
				c8.543,0,15.493,6.953,15.493,15.496C485.743,525.719,478.793,532.668,470.25,532.668z M470.25,504.772
				c-6.838,0-12.402,5.563-12.402,12.404c0,6.839,5.564,12.399,12.402,12.399c6.838,0,12.402-5.561,12.402-12.399
				C482.652,510.336,477.088,504.772,470.25,504.772z"/>
		</g>
		<g>
			<path style="fill:#FFE7AD;" d="M527.028,517.177c0,7.699-6.246,13.946-13.944,13.946c-7.704,0-13.948-6.247-13.948-13.946
				c0-7.704,6.244-13.95,13.948-13.95C520.782,503.227,527.028,509.473,527.028,517.177z"/>
			<path d="M513.084,532.668c-8.544,0-15.493-6.949-15.493-15.491c0-8.543,6.949-15.496,15.493-15.496
				c8.541,0,15.49,6.953,15.49,15.496C528.574,525.719,521.625,532.668,513.084,532.668z M513.084,504.772
				c-6.838,0-12.402,5.563-12.402,12.404c0,6.839,5.565,12.399,12.402,12.399c6.837,0,12.398-5.561,12.398-12.399
				C525.482,510.336,519.921,504.772,513.084,504.772z"/>
		</g>
	</g>
</g>
<g>
	<g>
		<g>
			<rect x="233.437" y="709.815" style="fill:#FFCD9C;" width="114.524" height="88.639"/>
			<path d="M347.961,800H233.437c-0.854,0-1.545-0.691-1.545-1.546v-88.639c0-0.855,0.691-1.545,1.545-1.545h114.524
				c0.855,0,1.546,0.69,1.546,1.545v88.639C349.507,799.309,348.815,800,347.961,800z M234.983,796.909h111.432v-85.548H234.983
				V796.909z"/>
		</g>
		<g>
			<path style="fill:#FFEAD9;" d="M233.437,575.095v-53.136c0-7.894,6.413-14.301,14.311-14.301c7.904,0,14.304,6.406,14.304,14.301
				v-3.762c0-7.903,6.4-14.307,14.298-14.307c7.904,0,14.31,6.403,14.31,14.307v-3.024c0-7.898,6.395-14.298,14.305-14.298
				c7.897,0,14.292,6.4,14.292,14.298v-43.118c0-7.909,6.407-14.31,14.31-14.31c7.904,0,14.304,6.4,14.304,14.31v103.076v20.725
				l20.457-34.105c10.875-18.212,32.321-7.946,32.321-7.946l-38.779,82.582c-7.376,11.974-19.452,15.155-20.708,15.452
				c-0.477,0.386-0.966,0.761-1.497,1.089c-12.976,9.978-13.205,18.423-13.205,18.423v17.045h13.136v21.42h-97.789v-21.42h10.608
				v-17.187c-0.145-11.019-10.458-18.045-10.458-18.045l0.06-0.031c-5.108-3.016-8.58-8.525-8.58-14.893v-63.109
				C233.437,575.116,233.437,575.106,233.437,575.095z"/>
			<path d="M339.595,711.361h-97.789c-0.855,0-1.546-0.691-1.546-1.546v-21.42c0-0.854,0.691-1.546,1.546-1.546h9.063v-15.641
				c-0.133-10.078-9.685-16.702-9.782-16.768c-0.096-0.064-0.181-0.14-0.26-0.221c-5.603-3.491-8.936-9.429-8.936-15.981V521.959
				c0-8.736,7.113-15.847,15.856-15.847c5.663,0,10.642,2.986,13.443,7.464c1.983-6.494,8.028-11.231,15.159-11.231
				c5.773,0,10.835,3.101,13.607,7.724c2.131-6.238,8.055-10.74,15.008-10.74c5.22,0,9.86,2.54,12.746,6.449v-33.723
				c0-8.742,7.113-15.856,15.855-15.856c8.741,0,15.851,7.114,15.851,15.856v118.219l17.586-29.317
				c4.522-7.574,11.557-11.58,20.342-11.58c7.547,0,13.712,2.909,13.972,3.033c0.767,0.369,1.093,1.283,0.73,2.054l-38.779,82.582
				c-7.367,11.977-18.926,15.563-21.402,16.213c-0.444,0.347-0.9,0.682-1.386,0.983c-11.982,9.224-12.471,17.085-12.474,17.163
				v15.445h11.59c0.854,0,1.545,0.691,1.545,1.546v21.42C341.141,710.67,340.449,711.361,339.595,711.361z M243.352,708.271h94.698
				v-18.329h-11.59c-0.854,0-1.546-0.691-1.546-1.546v-17.045c0.013-0.417,0.405-9.341,13.809-19.648
				c0.604-0.383,1.039-0.719,1.468-1.065c0.181-0.145,0.392-0.251,0.618-0.302c0.507-0.121,12.547-3.071,19.745-14.76l38.009-80.962
				c-2.128-0.803-6.409-2.146-11.218-2.146c-7.744,0-13.697,3.39-17.688,10.074l-20.46,34.109c-0.356,0.596-1.051,0.893-1.739,0.694
				c-0.667-0.185-1.132-0.794-1.132-1.488V472.055c0-7.037-5.724-12.764-12.759-12.764c-7.037,0-12.764,5.727-12.764,12.764v43.118
				c0,0.854-0.691,1.546-1.546,1.546c-0.854,0-1.546-0.692-1.546-1.546c0-7.031-5.718-12.752-12.746-12.752
				c-7.035,0-12.759,5.721-12.759,12.752v3.024c0,0.854-0.691,1.547-1.546,1.547c-0.854,0-1.545-0.692-1.545-1.547
				c0-7.037-5.728-12.761-12.765-12.761c-7.031,0-12.752,5.724-12.752,12.761v3.762c0,0.856-0.691,1.546-1.546,1.546
				c-0.854,0-1.545-0.69-1.545-1.546c0-7.034-5.724-12.755-12.758-12.755c-7.038,0-12.765,5.721-12.765,12.755V638.24
				c0,5.6,2.922,10.67,7.819,13.562c0.169,0.1,0.311,0.227,0.429,0.375c2.011,1.488,10.591,8.468,10.729,19.011v17.208
				c0,0.854-0.691,1.546-1.546,1.546h-9.063V708.271z"/>
		</g>
	</g>
	<g>
		<rect x="241.806" y="688.396" style="fill:#FFFFFF;" width="97.789" height="21.42"/>
		<path d="M339.595,711.361h-97.789c-0.855,0-1.546-0.691-1.546-1.546v-21.42c0-0.854,0.691-1.546,1.546-1.546h97.789
			c0.854,0,1.545,0.691,1.545,1.546v21.42C341.141,710.67,340.449,711.361,339.595,711.361z M243.352,708.271h94.698v-18.329
			h-94.698V708.271z"/>
	</g>
	<g>
		<rect x="233.437" y="709.815" style="fill:#939598;" width="114.524" height="88.639"/>
		<path d="M347.961,800H233.437c-0.854,0-1.545-0.691-1.545-1.546v-88.639c0-0.855,0.691-1.545,1.545-1.545h114.524
			c0.855,0,1.546,0.69,1.546,1.545v88.639C349.507,799.309,348.815,800,347.961,800z M234.983,796.909h111.432v-85.548H234.983
			V796.909z"/>
	</g>
	<g>
		<path style="fill:#FFCD9C;stroke:#000000;stroke-linecap:round;stroke-linejoin:round;stroke-miterlimit:10;" d="M369.656,623.756
			"/>
	</g>
	<g>
		<line style="fill:#FFCD9C;" x1="319.256" y1="515.173" x2="319.256" y2="566.75"/>
		<path d="M319.256,568.295c-0.854,0-1.546-0.69-1.546-1.545v-51.577c0-0.854,0.691-1.546,1.546-1.546
			c0.854,0,1.546,0.691,1.546,1.546v51.577C320.802,567.604,320.11,568.295,319.256,568.295z"/>
	</g>
	<g>
		<line style="fill:#FFCD9C;" x1="290.66" y1="518.197" x2="290.66" y2="566.75"/>
		<path d="M290.66,568.295c-0.854,0-1.545-0.69-1.545-1.545v-48.553c0-0.854,0.691-1.545,1.545-1.545
			c0.854,0,1.546,0.692,1.546,1.545v48.553C292.206,567.604,291.514,568.295,290.66,568.295z"/>
	</g>
	<g>
		<line style="fill:#FFCD9C;" x1="262.051" y1="521.959" x2="262.051" y2="566.75"/>
		<path d="M262.051,568.295c-0.854,0-1.545-0.69-1.545-1.545v-44.791c0-0.853,0.691-1.545,1.545-1.545
			c0.855,0,1.546,0.691,1.546,1.545v44.791C263.598,567.604,262.906,568.295,262.051,568.295z"/>
	</g>
	<g>
		<line style="fill:#FFCD9C;" x1="393.446" y1="551.552" x2="376.412" y2="581.29"/>
		<path d="M376.412,582.835c-0.262,0-0.525-0.066-0.767-0.205c-0.743-0.422-0.999-1.367-0.574-2.107l17.034-29.738
			c0.422-0.748,1.371-0.997,2.107-0.573c0.743,0.423,0.999,1.367,0.574,2.107l-17.033,29.737
			C377.469,582.558,376.946,582.835,376.412,582.835z"/>
	</g>
	<g>
		<polyline style="fill:#FFEAD9;" points="324.727,460.815 327.712,488.077 339.831,488.077 		"/>
		<path d="M339.831,489.623h-12.119c-0.788,0-1.452-0.596-1.537-1.377l-2.985-27.262c-0.094-0.849,0.519-1.612,1.368-1.706
			c0.83-0.102,1.612,0.517,1.706,1.367l2.835,25.886h10.733c0.854,0,1.545,0.691,1.545,1.546
			C341.376,488.931,340.685,489.623,339.831,489.623z"/>
	</g>
</g>
<g>
	<path style="fill:#FF9C8B;" d="M446.375,139.86V78.863c0-20.487-16.61-37.098-37.098-37.098h-17.003
		c-20.487,0-37.098,16.611-37.098,37.098v60.997H446.375z"/>
	<path d="M446.375,141.405h-91.198c-0.854,0-1.546-0.691-1.546-1.545V78.863c0-21.309,17.335-38.644,38.644-38.644h17.003
		c21.309,0,38.644,17.335,38.644,38.644v60.997C447.921,140.714,447.229,141.405,446.375,141.405z M356.722,138.314h88.108v-59.45
		c0-19.603-15.95-35.552-35.553-35.552h-17.003c-19.602,0-35.552,15.95-35.552,35.552V138.314z"/>
</g>
<g>
	<path style="fill:#FFFFFF;" d="M459.525,151.453c0,6.403-5.186,11.593-11.589,11.593h-94.571c-6.407,0-11.593-5.189-11.593-11.593
		l0,0c0-6.403,5.186-11.593,11.593-11.593h94.571C454.34,139.86,459.525,145.049,459.525,151.453L459.525,151.453z"/>
	<path d="M447.936,164.591h-94.571c-7.246,0-13.139-5.893-13.139-13.139c0-7.246,5.893-13.139,13.139-13.139h94.571
		c7.243,0,13.136,5.893,13.136,13.139C461.072,158.698,455.18,164.591,447.936,164.591z M353.365,141.405
		c-5.54,0-10.047,4.507-10.047,10.047c0,5.54,4.507,10.047,10.047,10.047h94.571c5.54,0,10.044-4.508,10.044-10.047
		c0-5.54-4.504-10.047-10.044-10.047H353.365z"/>
</g>
<g>
	<path d="M477.759,146.598c-0.397,0-0.792-0.151-1.094-0.453c-0.604-0.604-0.604-1.582,0-2.186
		c11.835-11.832,18.353-27.567,18.353-44.301c0-16.732-6.518-32.463-18.35-44.298c-0.604-0.604-0.604-1.582,0-2.186
		c0.603-0.604,1.582-0.604,2.185,0c12.417,12.417,19.256,28.925,19.256,46.487c0,17.559-6.841,34.066-19.259,46.484
		C478.549,146.447,478.153,146.598,477.759,146.598z"/>
</g>
<g>
	<path d="M495.842,164.682c-0.395,0-0.791-0.151-1.093-0.453c-0.604-0.604-0.604-1.581,0-2.186
		c34.398-34.398,34.398-90.368,0-124.767c-0.604-0.604-0.604-1.582,0-2.186c0.603-0.604,1.582-0.604,2.186,0
		c35.603,35.604,35.603,93.536,0,129.139C496.633,164.531,496.237,164.682,495.842,164.682z"/>
</g>
<g>
	<path d="M322.242,146.598c-0.396,0-0.791-0.151-1.093-0.453c-12.417-12.418-19.259-28.925-19.259-46.484
		c0-17.562,6.838-34.069,19.255-46.487c0.603-0.604,1.582-0.604,2.185,0c0.604,0.604,0.604,1.582,0,2.186
		c-11.831,11.835-18.35,27.566-18.35,44.298c0,16.734,6.518,32.47,18.353,44.301c0.603,0.604,0.603,1.582,0,2.186
		C323.033,146.447,322.637,146.598,322.242,146.598z"/>
</g>
<g>
	<path d="M304.158,164.682c-0.395,0-0.791-0.151-1.093-0.453c-17.247-17.248-26.748-40.177-26.748-64.568
		c0-24.394,9.501-47.323,26.748-64.571c0.604-0.604,1.582-0.604,2.186,0c0.603,0.604,0.603,1.582,0,2.186
		c-16.666,16.662-25.843,38.818-25.843,62.385c0,23.563,9.178,45.72,25.843,62.382c0.603,0.605,0.603,1.582,0,2.186
		C304.949,164.531,304.554,164.682,304.158,164.682z"/>
</g>
<g>
	<path style="fill:#E08A79;" d="M419.747,72.233c-0.918,0-1.793,0.52-2.603,1.425L400,83.053l-17.145-9.395
		c-0.81-0.905-1.688-1.425-2.606-1.425c-4.055,0-7.342,9.688-7.342,21.64c0,11.953,3.288,21.641,7.342,21.641
		c0.906,0,1.772-0.507,2.572-1.392L400,104.824l17.175,9.298c0.804,0.885,1.667,1.392,2.572,1.392c4.058,0,7.345-9.688,7.345-21.641
		C427.092,81.921,423.805,72.233,419.747,72.233z"/>
	<path d="M419.747,117.06c-1.25,0-2.436-0.57-3.528-1.696L400,106.581l-16.222,8.783c-1.089,1.126-2.276,1.696-3.529,1.696
		c-5.836,0-8.888-11.665-8.888-23.186c0-11.521,3.052-23.186,8.888-23.186c1.271,0,2.47,0.583,3.568,1.736L400,81.29l16.182-8.867
		c1.1-1.153,2.298-1.736,3.566-1.736c5.836,0,8.892,11.665,8.892,23.186C428.639,105.395,425.583,117.06,419.747,117.06z
		 M400,103.278c0.253,0,0.507,0.063,0.736,0.188l17.176,9.298c0.153,0.081,0.29,0.19,0.407,0.32
		c0.365,0.405,0.911,0.885,1.428,0.885c2.364,0,5.8-7.828,5.8-20.095c0-12.266-3.436-20.095-5.8-20.095
		c-0.528,0-1.077,0.496-1.449,0.909c-0.117,0.132-0.256,0.241-0.41,0.326l-17.145,9.395c-0.465,0.254-1.02,0.254-1.485,0
		l-17.145-9.395c-0.154-0.085-0.293-0.193-0.411-0.326c-0.372-0.414-0.924-0.909-1.452-0.909c-2.364,0-5.797,7.829-5.797,20.095
		c0,12.267,3.433,20.095,5.797,20.095c0.519,0,1.063-0.48,1.425-0.881c0.118-0.133,0.257-0.242,0.411-0.323l17.178-9.298
		C399.493,103.341,399.747,103.278,400,103.278z"/>
</g>
<g>
	<path style="fill:none;stroke:#000000;stroke-linecap:round;stroke-linejoin:round;stroke-miterlimit:10;" d="M395.26,66.18"/>
</g>
<g>
	<path d="M435.96,141.405c-0.855,0-1.546-0.691-1.546-1.545v-24.346c0-0.854,0.69-1.546,1.546-1.546
		c0.854,0,1.545,0.691,1.545,1.546v24.346C437.505,140.714,436.814,141.405,435.96,141.405z"/>
</g>
<g>
	<path d="M434.42,436.926h-14.005c-0.855,0-1.546-0.691-1.546-1.546c0-0.855,0.691-1.546,1.546-1.546h14.005
		c0.854,0,1.545,0.691,1.545,1.546C435.965,436.234,435.274,436.926,434.42,436.926z"/>
</g>
<g>
	<path d="M477.251,436.926h-14.006c-0.853,0-1.545-0.691-1.545-1.546c0-0.855,0.691-1.546,1.545-1.546h14.006
		c0.854,0,1.546,0.691,1.546,1.546C478.797,436.234,478.105,436.926,477.251,436.926z"/>
</g>
<g>
	<path d="M520.081,436.926h-14.008c-0.853,0-1.546-0.691-1.546-1.546c0-0.855,0.692-1.546,1.546-1.546h14.008
		c0.855,0,1.547,0.691,1.547,1.546C521.628,436.234,520.936,436.926,520.081,436.926z"/>
</g>
<g>
	<path d="M434.42,477.821h-14.005c-0.855,0-1.546-0.691-1.546-1.545c0-0.855,0.691-1.546,1.546-1.546h14.005
		c0.854,0,1.545,0.69,1.545,1.546C435.965,477.13,435.274,477.821,434.42,477.821z"/>
</g>
<g>
	<path d="M477.251,477.821h-14.006c-0.853,0-1.545-0.691-1.545-1.545c0-0.855,0.691-1.546,1.545-1.546h14.006
		c0.854,0,1.546,0.69,1.546,1.546C478.797,477.13,478.105,477.821,477.251,477.821z"/>
</g>
<g>
	<path d="M520.081,477.821h-14.008c-0.853,0-1.546-0.691-1.546-1.545c0-0.855,0.692-1.546,1.546-1.546h14.008
		c0.855,0,1.547,0.69,1.547,1.546C521.628,477.13,520.936,477.821,520.081,477.821z"/>
</g>
<g>
	<path d="M434.42,518.721h-14.005c-0.855,0-1.546-0.691-1.546-1.547c0-0.854,0.691-1.545,1.546-1.545h14.005
		c0.854,0,1.545,0.691,1.545,1.545C435.965,518.029,435.274,518.721,434.42,518.721z"/>
</g>
<g>
	<path d="M477.251,518.721h-14.006c-0.853,0-1.545-0.691-1.545-1.547c0-0.854,0.691-1.545,1.545-1.545h14.006
		c0.854,0,1.546,0.691,1.546,1.545C478.797,518.029,478.105,518.721,477.251,518.721z"/>
</g>
<g>
	<path d="M520.081,518.721h-14.008c-0.853,0-1.546-0.691-1.546-1.547c0-0.854,0.692-1.545,1.546-1.545h14.008
		c0.855,0,1.547,0.691,1.547,1.545C521.628,518.029,520.936,518.721,520.081,518.721z"/>
</g>
<g>
	<g>
		<g>
			<path d="M369.9,365.843c-6.569,0-12.448-2.838-17.465-8.441c-5.036-5.618-7.583-12.942-7.583-21.767
				c0-8.861,2.548-16.194,7.583-21.797c5.018-5.585,10.896-8.417,17.465-8.417c4.429,0,8.631,1.313,12.49,3.904
				c3.864,2.599,6.956,6.279,9.19,10.935c2.234,4.673,3.37,9.848,3.37,15.376c0,5.498-1.126,10.663-3.348,15.349
				c-2.213,4.674-5.304,8.356-9.187,10.956C378.544,364.53,374.335,365.843,369.9,365.843z M369.9,308.391
				c-6.083,0-11.349,2.702-15.647,8.024c-4.27,5.287-6.431,11.753-6.431,19.219c0,7.94,2.276,14.53,6.75,19.585
				c4.493,5.078,9.655,7.653,15.328,7.653c6.494,0,11.855-2.826,15.938-8.402c4.039-5.512,6.086-11.85,6.086-18.835
				c0-6.956-2.047-13.287-6.086-18.817C381.756,311.226,376.394,308.391,369.9,308.391z"/>
		</g>
	</g>
	<g>
		<g>
			<path d="M449.086,364.189c-4.413-12.013-8.042-19.564-11.091-23.069c-3.074-3.532-6.963-6.047-11.564-7.484l-0.331-0.103
				l-8.942,8.04v19.645h8.39c1.09,0,1.579,0.229,1.8,0.422c0.299,0.266,0.438,0.604,0.438,1.063c0,0.429-0.139,0.764-0.449,1.051
				c-0.312,0.284-0.928,0.435-1.788,0.435H407.9c-0.827,0-1.428-0.151-1.738-0.435c-0.309-0.289-0.453-0.622-0.453-1.051
				c0-0.459,0.139-0.796,0.441-1.063c0.223-0.193,0.699-0.422,1.75-0.422h6.28v-51.469h-6.28c-1.051,0-1.527-0.229-1.745-0.422
				c-0.308-0.269-0.446-0.607-0.446-1.066c0-0.459,0.139-0.797,0.446-1.069c0.218-0.19,0.694-0.419,1.745-0.419h17.646
				c1.09,0,1.579,0.23,1.8,0.422c0.299,0.266,0.438,0.607,0.438,1.066c0,0.459-0.139,0.797-0.44,1.066
				c-0.218,0.193-0.713,0.422-1.797,0.422h-8.39v27.914l31.319-27.914h-6.234c-1.09,0-1.579-0.229-1.799-0.425
				c-0.302-0.266-0.439-0.604-0.439-1.063c0-0.459,0.139-0.8,0.441-1.069c0.217-0.19,0.706-0.419,1.796-0.419h12.381
				c0.827,0,1.438,0.145,1.751,0.422c0.296,0.266,0.439,0.607,0.439,1.066c0,0.459-0.143,0.797-0.444,1.066
				c-0.312,0.278-0.918,0.422-1.745,0.422h-1.938l-24.076,21.52l0.918,0.374c3.36,1.371,6.18,3.101,8.383,5.145
				c2.204,2.044,4.378,5.012,6.446,8.818c1.192,2.156,3.408,7.276,6.585,15.222l0.154,0.39h5.684c1.091,0,1.579,0.229,1.8,0.422
				c0.302,0.266,0.44,0.604,0.44,1.063c0,0.429-0.145,0.764-0.452,1.051c-0.309,0.284-0.931,0.435-1.788,0.435H449.086z"/>
		</g>
	</g>
</g>
<g>
	<g>
		<path d="M334.84,263.522h-41.88c-0.854,0-1.546-0.691-1.546-1.546s0.691-1.546,1.546-1.546h41.88c0.854,0,1.546,0.691,1.546,1.546
			S335.695,263.522,334.84,263.522z"/>
	</g>
	<g>
		<path d="M313.9,284.462c-0.854,0-1.546-0.691-1.546-1.546v-41.88c0-0.855,0.691-1.545,1.546-1.545s1.545,0.691,1.545,1.545v41.88
			C315.446,283.771,314.755,284.462,313.9,284.462z"/>
	</g>
	<g>
		<path d="M328.706,278.327c-0.395,0-0.791-0.151-1.093-0.453l-29.611-29.611c-0.604-0.604-0.604-1.582,0-2.186
			c0.604-0.604,1.582-0.604,2.186,0l29.61,29.611c0.604,0.604,0.604,1.582,0,2.186C329.497,278.176,329.101,278.327,328.706,278.327
			z"/>
	</g>
	<g>
		<path d="M299.095,278.33c-0.396,0-0.791-0.151-1.093-0.453c-0.604-0.604-0.604-1.582,0-2.186l29.611-29.614
			c0.603-0.604,1.582-0.604,2.185,0c0.604,0.604,0.604,1.582,0,2.186l-29.61,29.614C299.886,278.179,299.491,278.33,299.095,278.33z
			"/>
	</g>
</g>
<g>
	<g>
		<path d="M392.238,263.522h-41.877c-0.854,0-1.546-0.691-1.546-1.546s0.691-1.546,1.546-1.546h41.877
			c0.854,0,1.545,0.691,1.545,1.546S393.092,263.522,392.238,263.522z"/>
	</g>
	<g>
		<path d="M371.301,284.462c-0.855,0-1.546-0.691-1.546-1.546v-41.88c0-0.855,0.691-1.545,1.546-1.545
			c0.854,0,1.545,0.691,1.545,1.545v41.88C372.847,283.771,372.155,284.462,371.301,284.462z"/>
	</g>
	<g>
		<path d="M386.106,278.327c-0.396,0-0.791-0.151-1.093-0.453L355.4,248.264c-0.604-0.604-0.604-1.582,0-2.186
			c0.603-0.604,1.582-0.604,2.185,0l29.614,29.611c0.604,0.604,0.604,1.582,0,2.186
			C386.897,278.176,386.502,278.327,386.106,278.327z"/>
	</g>
	<g>
		<path d="M356.493,278.33c-0.395,0-0.791-0.151-1.093-0.453c-0.604-0.604-0.604-1.582,0-2.186l29.614-29.614
			c0.603-0.604,1.582-0.604,2.185,0c0.604,0.604,0.604,1.582,0,2.186l-29.614,29.614C357.284,278.179,356.889,278.33,356.493,278.33
			z"/>
	</g>
</g>
<g>
	<g>
		<path d="M449.642,263.522h-41.88c-0.854,0-1.546-0.691-1.546-1.546s0.691-1.546,1.546-1.546h41.88
			c0.854,0,1.546,0.691,1.546,1.546S450.496,263.522,449.642,263.522z"/>
	</g>
	<g>
		<path d="M428.702,284.462c-0.854,0-1.546-0.691-1.546-1.546v-41.88c0-0.855,0.691-1.545,1.546-1.545
			c0.854,0,1.546,0.691,1.546,1.545v41.88C430.248,283.771,429.556,284.462,428.702,284.462z"/>
	</g>
	<g>
		<path d="M443.508,278.327c-0.396,0-0.792-0.151-1.094-0.453l-29.61-29.611c-0.604-0.604-0.604-1.582,0-2.186
			c0.604-0.604,1.582-0.604,2.186,0l29.61,29.611c0.605,0.604,0.605,1.582,0,2.186C444.298,278.176,443.903,278.327,443.508,278.327
			z"/>
	</g>
	<g>
		<path d="M413.896,278.33c-0.395,0-0.791-0.151-1.093-0.453c-0.604-0.604-0.604-1.582,0-2.186l29.61-29.614
			c0.603-0.604,1.582-0.604,2.185,0c0.605,0.604,0.605,1.582,0,2.186l-29.61,29.614C414.688,278.179,414.292,278.33,413.896,278.33z
			"/>
	</g>
</g>
<g>
	<g>
		<path d="M507.043,263.522H465.16c-0.855,0-1.546-0.691-1.546-1.546s0.69-1.546,1.546-1.546h41.883
			c0.853,0,1.546,0.691,1.546,1.546S507.896,263.522,507.043,263.522z"/>
	</g>
	<g>
		<path d="M486.102,284.462c-0.853,0-1.546-0.691-1.546-1.546v-41.88c0-0.855,0.692-1.545,1.546-1.545
			c0.855,0,1.546,0.691,1.546,1.545v41.88C487.648,283.771,486.957,284.462,486.102,284.462z"/>
	</g>
	<g>
		<path d="M500.905,278.327c-0.396,0-0.791-0.151-1.093-0.453l-29.607-29.611c-0.604-0.604-0.604-1.582,0-2.186
			c0.604-0.604,1.582-0.604,2.186,0l29.607,29.611c0.604,0.604,0.604,1.582,0,2.186
			C501.696,278.176,501.301,278.327,500.905,278.327z"/>
	</g>
	<g>
		<path d="M471.297,278.33c-0.395,0-0.79-0.151-1.092-0.453c-0.604-0.604-0.604-1.582,0-2.186l29.607-29.614
			c0.603-0.604,1.582-0.604,2.185,0c0.604,0.604,0.604,1.582,0,2.186l-29.607,29.614C472.089,278.179,471.693,278.33,471.297,278.33
			z"/>
	</g>
</g>
<g>
	<path d="M333.24,337.026h-38.68c-0.854,0-1.545-0.691-1.545-1.546c0-0.854,0.691-1.545,1.545-1.545h38.68
		c0.854,0,1.546,0.691,1.546,1.545C334.786,336.335,334.095,337.026,333.24,337.026z"/>
</g>
<g>
	<path d="M506.503,337.026h-38.687c-0.854,0-1.546-0.691-1.546-1.546c0-0.854,0.691-1.545,1.546-1.545h38.687
		c0.853,0,1.545,0.691,1.545,1.545C508.048,336.335,507.356,337.026,506.503,337.026z"/>
</g>
<g>
	<g>
		<path style="fill:#939598;" d="M621.051,160.12l-33.325,6.011c-2.161,0.392-4.232-1.048-4.625-3.209l-6.771-37.527
			C596.276,127.868,613.61,141.136,621.051,160.12z"/>
		<path d="M587.014,167.74c-2.672,0-4.955-1.911-5.435-4.543l-6.772-37.527c-0.088-0.483,0.061-0.981,0.399-1.337
			c0.338-0.359,0.818-0.54,1.313-0.471c20.734,2.569,38.351,16.249,45.971,35.694c0.169,0.432,0.137,0.915-0.091,1.319
			c-0.227,0.401-0.619,0.685-1.075,0.767l-33.323,6.011C587.668,167.713,587.34,167.74,587.014,167.74z M578.231,127.231
			l6.391,35.417c0.236,1.301,1.474,2.206,2.83,1.962l31.44-5.67C611.616,142.124,596.307,130.189,578.231,127.231z"/>
	</g>
	<g>
		<path style="fill:#F1F2F2;" d="M567.021,106.988l150.052-27.078c5.742-1.038,11.288,2.811,12.323,8.556l9.143,50.623
			c1.035,5.742-2.814,11.288-8.563,12.323l-105.974,19.129c-0.658-3.632-1.658-7.11-2.952-10.422
			c-7.44-18.984-24.774-32.252-44.722-34.725c-5.419-0.673-11.028-0.552-16.68,0.468l-1.184-6.545
			C557.428,113.576,561.279,108.027,567.021,106.988z"/>
		<path d="M624,172.087c-0.731,0-1.383-0.522-1.52-1.271c-0.624-3.451-1.59-6.862-2.87-10.135
			c-7.207-18.389-23.862-31.322-43.471-33.752c-5.359-0.667-10.862-0.514-16.216,0.456c-0.833,0.136-1.646-0.401-1.796-1.247
			l-1.184-6.545c-1.192-6.596,3.206-12.934,9.803-14.126l150.052-27.078c6.708-1.204,12.948,3.312,14.119,9.803l9.142,50.623
			c0.573,3.185-0.134,6.409-1.99,9.084c-1.856,2.672-4.634,4.462-7.819,5.036l-105.974,19.128
			C624.184,172.078,624.094,172.087,624,172.087z M569.533,123.43c2.327,0,4.676,0.146,6.986,0.432
			c20.734,2.569,38.351,16.249,45.971,35.694c1.163,2.98,2.083,6.065,2.738,9.193l104.474-18.857c2.373-0.429,4.444-1.76,5.83-3.756
			c1.385-1.995,1.913-4.401,1.485-6.771l-9.143-50.623c-0.872-4.839-5.491-8.206-10.527-7.309L567.296,108.51
			c-4.92,0.891-8.199,5.615-7.31,10.533l0.913,5.045C563.761,123.65,566.66,123.43,569.533,123.43z"/>
	</g>
	<g>
		<path style="fill:#939598;" d="M675.821,124.272c2.477,13.728,15.614,22.848,29.345,20.37
			c13.725-2.476,22.852-15.614,20.373-29.342c-2.477-13.73-15.621-22.845-29.346-20.37
			C682.464,97.406,673.343,110.545,675.821,124.272z"/>
		<path d="M700.649,146.595c-12.964-0.003-24.046-9.274-26.35-22.048c-1.271-7.046,0.277-14.166,4.359-20.046
			c4.085-5.881,10.214-9.821,17.26-11.092c1.582-0.284,3.194-0.429,4.788-0.429c12.968,0,24.05,9.271,26.354,22.045
			c1.271,7.047-0.278,14.165-4.362,20.046c-4.085,5.882-10.214,9.821-17.257,11.092C703.855,146.45,702.244,146.595,700.649,146.595
			z M700.707,96.072c-1.409,0-2.837,0.126-4.238,0.38c-6.235,1.123-11.656,4.607-15.271,9.812
			c-3.611,5.202-4.981,11.499-3.855,17.734c2.038,11.303,11.841,19.506,23.307,19.506c1.413,0,2.838-0.13,4.242-0.383
			c6.231-1.123,11.653-4.607,15.267-9.812c3.614-5.205,4.985-11.503,3.859-17.734C721.979,104.274,712.177,96.072,700.707,96.072z"
			/>
	</g>
	<g>
		<path d="M751.81,294.808c-0.854,0-1.545-0.691-1.545-1.546v-137.9c0-0.854,0.691-1.545,1.545-1.545
			c0.855,0,1.546,0.691,1.546,1.545v137.9C753.355,294.117,752.665,294.808,751.81,294.808z"/>
	</g>
	<g>
		<path style="fill:#939598;" d="M751.81,256.005v-63.382c-17.308,0.227-31.271,14.326-31.271,31.691
			C720.539,241.673,734.502,255.772,751.81,256.005z"/>
		<path d="M751.81,257.55c-0.005,0-0.014,0-0.021,0c-18.083-0.245-32.796-15.152-32.796-33.237c0-18.09,14.713-33.001,32.796-33.236
			c0.01,0,0.016,0,0.021,0c0.408,0,0.798,0.16,1.088,0.447c0.292,0.29,0.458,0.685,0.458,1.098v63.382
			c0,0.413-0.166,0.809-0.458,1.099C752.607,257.39,752.218,257.55,751.81,257.55z M750.265,194.229
			c-15.675,1.023-28.181,14.202-28.181,30.085c0,15.877,12.502,29.055,28.181,30.085V194.229z"/>
	</g>
	<g>
		<path d="M730.652,202.655c-0.633,0-1.227-0.393-1.455-1.023l-29.128-81.23c-0.286-0.803,0.131-1.691,0.934-1.977
			c0.806-0.281,1.69,0.129,1.978,0.933l29.128,81.23c0.286,0.803-0.131,1.69-0.934,1.977
			C731.004,202.625,730.825,202.655,730.652,202.655z"/>
	</g>
</g>
<g>
	<path d="M662.423,336.655h-39.664c-13.972,0-25.342-11.37-25.342-25.345v-68.124c0-13.976,11.37-25.345,25.342-25.345h39.664
		c13.978,0,25.349,11.37,25.349,25.345v68.124C687.771,325.285,676.401,336.655,662.423,336.655z M622.759,220.933
		c-12.269,0-22.25,9.984-22.25,22.253v68.124c0,12.269,9.981,22.253,22.25,22.253h39.664c12.272,0,22.256-9.984,22.256-22.253
		v-68.124c0-12.27-9.983-22.253-22.256-22.253H622.759z"/>
</g>
<g>
	<g>
		<path style="fill:#FFFFFF;" d="M724.972,650.733h-175.11c-11.103-29.176-39.325-49.914-72.402-49.914
			c-42.779,0-77.459,34.68-77.459,77.463c0,42.779,34.68,77.459,77.459,77.459c33.077,0,61.299-20.738,72.402-49.914h49.314v-22.513
			h45.037v22.513h22.206v-22.513h45.027v22.513h13.526c3.779,0,6.864-3.088,6.864-6.862v-41.366
			C731.836,653.822,728.751,650.733,724.972,650.733z"/>
		<path d="M477.459,757.287c-43.565,0-79.004-35.44-79.004-79.005c0-43.565,35.44-79.008,79.004-79.008
			c32.225,0,61.609,20.013,73.459,49.913h174.054c4.637,0,8.41,3.773,8.41,8.411v41.366c0,4.638-3.773,8.408-8.41,8.408h-13.526
			c-0.854,0-1.545-0.69-1.545-1.546V684.86h-41.938v20.967c0,0.856-0.691,1.546-1.545,1.546h-22.206
			c-0.855,0-1.546-0.69-1.546-1.546V684.86H600.72v20.967c0,0.856-0.691,1.546-1.545,1.546h-48.257
			C539.068,737.274,509.684,757.287,477.459,757.287z M477.459,602.365c-41.858,0-75.913,34.055-75.913,75.917
			c0,41.858,34.055,75.913,75.913,75.913c31.308,0,59.822-19.66,70.956-48.918c0.229-0.6,0.804-0.995,1.446-0.995h47.768v-20.968
			c0-0.854,0.69-1.546,1.546-1.546h45.037c0.854,0,1.546,0.691,1.546,1.546v20.968h19.113v-20.968c0-0.854,0.691-1.546,1.547-1.546
			h45.027c0.854,0,1.547,0.691,1.547,1.546v20.968h11.979c2.934,0,5.319-2.385,5.319-5.317v-41.366c0-2.934-2.386-5.319-5.319-5.319
			h-175.11c-0.642,0-1.217-0.396-1.446-0.997C537.281,622.024,508.767,602.365,477.459,602.365z"/>
	</g>
	<g>
		<path d="M711.814,669.194H598.836c-0.854,0-1.545-0.69-1.545-1.546c0-0.854,0.69-1.545,1.545-1.545h112.979
			c0.854,0,1.546,0.69,1.546,1.545C713.36,668.504,712.668,669.194,711.814,669.194z"/>
	</g>
	<g>
		<path d="M586.253,669.194h-14.592c-0.854,0-1.545-0.69-1.545-1.546c0-0.854,0.691-1.545,1.545-1.545h14.592
			c0.854,0,1.546,0.69,1.546,1.545C587.799,668.504,587.106,669.194,586.253,669.194z"/>
	</g>
	<g>
		<path d="M598.836,684.86H571.32c-0.854,0-1.546-0.692-1.546-1.546c0-0.854,0.692-1.546,1.546-1.546h27.516
			c0.856,0,1.546,0.691,1.546,1.546C600.382,684.169,599.691,684.86,598.836,684.86z"/>
	</g>
	<g>
		<path d="M549.861,707.373c-0.129,0-0.26-0.016-0.392-0.051c-0.824-0.218-1.318-1.064-1.103-1.888
			c0.019-0.074,2.015-7.75,2.015-14.044c0-0.855,0.691-1.546,1.546-1.546c0.855,0,1.545,0.69,1.545,1.546
			c0,6.702-2.028,14.5-2.115,14.83C551.175,706.914,550.547,707.373,549.861,707.373z"/>
	</g>
	<g>
		<path style="fill:#939598;" d="M459.103,678.282c0,11.502-9.323,20.828-20.828,20.828c-11.506,0-20.829-9.326-20.829-20.828
			c0-11.505,9.323-20.829,20.829-20.829C449.78,657.453,459.103,666.777,459.103,678.282z"/>
		<path d="M438.275,700.656c-12.336,0-22.374-10.038-22.374-22.374c0-12.336,10.038-22.374,22.374-22.374
			c12.335,0,22.374,10.038,22.374,22.374C460.649,690.618,450.61,700.656,438.275,700.656z M438.275,658.999
			c-10.633,0-19.282,8.649-19.282,19.283c0,10.633,8.649,19.282,19.282,19.282s19.282-8.65,19.282-19.282
			C457.558,667.648,448.908,658.999,438.275,658.999z"/>
	</g>
</g>
<g>
	<g>
		<path style="fill:#DDD6FF;" d="M216.12,324.086l-82.546-24.288l-82.54,24.288c0,0-5.519,140.654,82.54,167.003
			C221.633,464.74,216.12,324.086,216.12,324.086z"/>
		<path d="M133.574,492.636c-0.148,0-0.299-0.021-0.443-0.063c-88.186-26.389-83.697-167.128-83.643-168.546
			c0.027-0.665,0.474-1.235,1.108-1.422l82.54-24.288c0.29-0.085,0.586-0.085,0.876,0l82.546,24.288
			c0.634,0.186,1.081,0.757,1.108,1.422c0.054,1.418,4.538,142.157-83.648,168.546C133.873,492.614,133.722,492.636,133.574,492.636
			z M52.552,325.252c-0.241,13.187-0.341,139.425,81.021,164.224c81.387-24.809,81.272-151.04,81.028-164.224l-81.028-23.841
			L52.552,325.252z"/>
	</g>
	<g>
		<path d="M72.807,388.92c-0.712,0-1.353-0.492-1.509-1.217c-2.116-9.682-3.735-19.988-4.815-30.628
			c-0.734-7.17-1.211-14.353-1.416-21.344c-0.021-0.701,0.435-1.328,1.108-1.527l19.545-5.758c0.827-0.241,1.679,0.227,1.92,1.044
			c0.242,0.821-0.227,1.679-1.044,1.92l-18.401,5.419c0.221,6.543,0.68,13.242,1.362,19.932c1.069,10.527,2.672,20.714,4.761,30.284
			c0.184,0.833-0.344,1.657-1.18,1.838C73.024,388.908,72.915,388.92,72.807,388.92z"/>
	</g>
	<g>
		<path d="M168.776,449.416c-0.326,0-0.655-0.102-0.936-0.314c-0.68-0.517-0.812-1.488-0.296-2.168
			c5.534-7.282,10.44-15.898,14.582-25.61c4.161-9.709,7.641-20.698,10.341-32.66c0.187-0.831,1.005-1.362,1.847-1.166
			c0.833,0.187,1.356,1.015,1.166,1.848c-2.738,12.143-6.276,23.313-10.509,33.194c-4.242,9.941-9.277,18.781-14.962,26.266
			C169.703,449.204,169.241,449.416,168.776,449.416z"/>
	</g>
	<g>
		<path d="M198.438,364.653c-0.063,0-0.127-0.003-0.19-0.012c-0.849-0.103-1.452-0.876-1.346-1.721
			c1.313-10.681,1.844-19.904,2.056-26.091l-29.031-8.543c-0.818-0.242-1.286-1.099-1.044-1.92c0.241-0.818,1.096-1.28,1.92-1.044
			l30.175,8.882c0.673,0.199,1.129,0.827,1.108,1.527c-0.184,6.225-0.7,16.059-2.116,27.563
			C199.872,364.08,199.207,364.653,198.438,364.653z"/>
	</g>
	<g>
		<g>
			<path style="fill:#FFFFFF;" d="M116.951,528.56V422.845c-17.613-6.702-30.135-23.742-30.135-43.706
				c0-25.831,20.934-46.765,46.758-46.765c25.831,0,46.771,20.934,46.771,46.765c0,19.965-12.517,37.004-30.133,43.706v29.777
				h-13.594v27.183h13.594v13.404h-13.594v27.189h13.594v8.161c0,2.285-1.862,4.146-4.139,4.146H121.1
				C118.813,532.705,116.951,530.845,116.951,528.56z"/>
			<path d="M146.073,534.25H121.1c-3.14,0-5.694-2.555-5.694-5.69V423.898c-18.069-7.346-30.136-25.197-30.136-44.76
				c0-26.64,21.671-48.31,48.305-48.31c26.643,0,48.317,21.67,48.317,48.31c0,19.567-12.064,37.414-30.133,44.76v28.724
				c0,0.854-0.691,1.545-1.546,1.545h-12.049v24.093h12.049c0.855,0,1.546,0.69,1.546,1.545v13.404c0,0.855-0.691,1.546-1.546,1.546
				h-12.049v24.098h12.049c0.855,0,1.546,0.692,1.546,1.546v8.161C151.757,531.695,149.206,534.25,146.073,534.25z M133.574,333.92
				c-24.931,0-45.213,20.285-45.213,45.218c0,18.646,11.711,35.63,29.14,42.26c0.601,0.23,0.997,0.803,0.997,1.446V528.56
				c0,1.434,1.168,2.599,2.603,2.599h24.973c1.431,0,2.593-1.165,2.593-2.599v-6.615h-12.049c-0.855,0-1.546-0.691-1.546-1.546
				v-27.189c0-0.855,0.692-1.545,1.546-1.545h12.049v-10.314h-12.049c-0.855,0-1.546-0.69-1.546-1.546v-27.183
				c0-0.855,0.692-1.546,1.546-1.546h12.049v-28.232c0-0.643,0.395-1.216,0.996-1.446c17.429-6.63,29.137-23.611,29.137-42.26
				C178.799,354.205,158.511,333.92,133.574,333.92z"/>
		</g>
		<g>
			<line style="fill:#FFFFFF;" x1="127.158" y1="520.616" x2="127.158" y2="452.417"/>
			<path d="M127.158,522.161c-0.854,0-1.545-0.69-1.545-1.545v-68.199c0-0.855,0.691-1.547,1.545-1.547s1.546,0.691,1.546,1.547
				v68.199C128.704,521.471,128.013,522.161,127.158,522.161z"/>
		</g>
		<g>
			<line style="fill:#FFFFFF;" x1="127.158" y1="444.817" x2="127.158" y2="436.002"/>
			<path d="M127.158,446.362c-0.854,0-1.545-0.69-1.545-1.545v-8.815c0-0.855,0.691-1.546,1.545-1.546s1.546,0.691,1.546,1.546
				v8.815C128.704,445.672,128.013,446.362,127.158,446.362z"/>
		</g>
		<g>
			<line style="fill:#FFFFFF;" x1="136.617" y1="435.803" x2="136.617" y2="452.417"/>
			<path d="M136.617,453.962c-0.855,0-1.546-0.691-1.546-1.545v-16.614c0-0.854,0.692-1.546,1.546-1.546
				c0.854,0,1.545,0.691,1.545,1.546v16.614C138.163,453.271,137.471,453.962,136.617,453.962z"/>
		</g>
		<g>
			<path style="fill:#FFFFFF;" d="M150.211,422.845c0,0-4.742,1.247-8.722,1.247"/>
			<path d="M141.49,425.638c-0.854,0-1.546-0.691-1.546-1.546s0.691-1.545,1.546-1.545c3.725,0,8.284-1.185,8.33-1.196
				c0.812-0.224,1.672,0.275,1.887,1.103c0.217,0.823-0.275,1.669-1.102,1.887C150.402,424.394,145.62,425.638,141.49,425.638z"/>
		</g>
		<g>
			<path style="fill:#DDD6FF;" d="M133.574,368.056c6.95,0,12.583-5.624,12.583-12.574c0-6.95-5.633-12.571-12.583-12.571
				c-6.938,0-12.571,5.621-12.571,12.571C121.002,362.431,126.636,368.056,133.574,368.056z"/>
			<path d="M133.574,369.602c-7.783,0-14.117-6.334-14.117-14.12c0-7.783,6.334-14.117,14.117-14.117
				c7.792,0,14.129,6.334,14.129,14.117C147.703,363.268,141.366,369.602,133.574,369.602z M133.574,344.456
				c-6.08,0-11.025,4.945-11.025,11.026c0,6.08,4.945,11.028,11.025,11.028c6.087,0,11.038-4.948,11.038-11.028
				C144.611,349.401,139.66,344.456,133.574,344.456z"/>
		</g>
	</g>
</g>
<g>
	<g>
		<path d="M734.307,399.544H595.192c-0.854,0-1.546-0.691-1.546-1.546v-9.757c0-11.08,9.015-20.094,20.095-20.094h102.017
			c11.079,0,20.094,9.015,20.094,20.094v9.757C735.852,398.853,735.16,399.544,734.307,399.544z M596.737,396.453H732.76v-8.212
			c0-9.374-7.629-17.003-17.002-17.003H613.741c-9.374,0-17.004,7.629-17.004,17.003V396.453z"/>
	</g>
	<g>
		<path d="M715.758,612.298H613.741c-11.08,0-20.095-9.015-20.095-20.095v-13.869c0-0.854,0.691-1.546,1.546-1.546h139.114
			c0.854,0,1.545,0.691,1.545,1.546v13.869C735.852,603.283,726.837,612.298,715.758,612.298z M596.737,579.88v12.323
			c0,9.375,7.63,17.004,17.004,17.004h102.017c9.373,0,17.002-7.629,17.002-17.004V579.88H596.737z"/>
	</g>
	<g>
		<rect x="595.192" y="397.998" style="fill:#DDD6FF;" width="139.114" height="180.336"/>
		<path d="M734.307,579.88H595.192c-0.854,0-1.546-0.691-1.546-1.546V397.998c0-0.854,0.691-1.545,1.546-1.545h139.114
			c0.854,0,1.545,0.691,1.545,1.545v180.336C735.852,579.188,735.16,579.88,734.307,579.88z M596.737,576.788H732.76V399.544
			H596.737V576.788z"/>
	</g>
</g>
<g>
	<rect x="645.556" y="589.227" style="fill:#E6E7E8;" width="38.387" height="10.633"/>
	<path d="M683.942,601.405h-38.387c-0.854,0-1.546-0.69-1.546-1.546v-10.633c0-0.854,0.691-1.546,1.546-1.546h38.387
		c0.854,0,1.546,0.692,1.546,1.546v10.633C685.488,600.715,684.797,601.405,683.942,601.405z M647.101,598.315h35.296v-7.542
		h-35.296V598.315z"/>
</g>
<g>
	<path d="M700.027,596.089h-16.085c-0.854,0-1.546-0.691-1.546-1.545c0-0.855,0.691-1.547,1.546-1.547h16.085
		c0.854,0,1.547,0.691,1.547,1.547C701.574,595.398,700.882,596.089,700.027,596.089z"/>
</g>
<g>
	<path d="M645.556,596.089H629.47c-0.854,0-1.545-0.691-1.545-1.545c0-0.855,0.69-1.547,1.545-1.547h16.086
		c0.854,0,1.545,0.691,1.545,1.547C647.101,595.398,646.41,596.089,645.556,596.089z"/>
</g>
<g>
	<path d="M686.225,385.391h-42.949c-0.854,0-1.545-0.691-1.545-1.545c0-0.855,0.691-1.546,1.545-1.546h42.949
		c0.854,0,1.547,0.691,1.547,1.546C687.771,384.699,687.079,385.391,686.225,385.391z"/>
</g>
<g>
	<path d="M697.71,392.241c-0.856,0-1.547-0.691-1.547-1.545v-13.7c0-0.854,0.691-1.546,1.547-1.546c0.853,0,1.545,0.691,1.545,1.546
		v13.7C699.255,391.55,698.563,392.241,697.71,392.241z"/>
</g>
<g>
	<path d="M708.786,392.241c-0.854,0-1.546-0.691-1.546-1.545v-13.7c0-0.854,0.691-1.546,1.546-1.546s1.546,0.691,1.546,1.546v13.7
		C710.332,391.55,709.641,392.241,708.786,392.241z"/>
</g>
<g>
	<path style="fill:#FFE7AD;" d="M179.563,702.361v-59.408c0-25.402-20.587-45.989-45.983-45.989
		c-25.396,0-45.992,20.587-45.992,45.989v59.408c-12.366,0-21.9,10.026-21.9,22.389c0,0.128,0.018,0.248,0.018,0.372H88.98h28.028
		h84.445c0-0.124,0.012-0.244,0.012-0.372C201.466,712.388,191.929,702.361,179.563,702.361z"/>
	<path d="M201.454,726.668H65.706c-0.854,0-1.546-0.691-1.546-1.546l-0.019-0.372c0-12.891,9.502-23.099,21.9-23.886v-57.911
		c0-26.211,21.327-47.535,47.538-47.535c26.208,0,47.528,21.324,47.528,47.535v57.911c12.402,0.787,21.903,10.995,21.903,23.886
		C203.012,725.604,202.308,726.668,201.454,726.668z M67.264,723.576h132.617c-0.619-11.174-9.32-19.669-20.318-19.669
		c-0.855,0-1.546-0.69-1.546-1.546v-59.408c0-24.505-19.935-44.442-44.437-44.442c-24.508,0-44.446,19.938-44.446,44.442v59.408
		c0,0.855-0.691,1.546-1.546,1.546C76.56,703.907,67.84,712.454,67.264,723.576z"/>
</g>
<g>
	<path d="M131.481,703.907H87.588c-0.854,0-1.546-0.69-1.546-1.546c0-0.855,0.691-1.545,1.546-1.545h43.894
		c0.854,0,1.546,0.69,1.546,1.545C133.027,703.217,132.336,703.907,131.481,703.907z"/>
</g>
<g>
	<path d="M154.278,703.907h-11.315c-0.854,0-1.545-0.69-1.545-1.546c0-0.855,0.691-1.545,1.545-1.545h11.315
		c0.854,0,1.545,0.69,1.545,1.545C155.824,703.217,155.132,703.907,154.278,703.907z"/>
</g>
<g>
	<path d="M179.563,703.907h-15.062c-0.855,0-1.546-0.69-1.546-1.546c0-0.855,0.691-1.545,1.546-1.545h15.062
		c0.854,0,1.545,0.69,1.545,1.545C181.108,703.217,180.417,703.907,179.563,703.907z"/>
</g>
<g>
	<path d="M101.596,741.566L101.596,741.566c-2.255,0-4.425-0.518-6.448-1.539c-5.634-2.845-8.722-8.933-7.692-15.159
		c0.124-0.745,0.767-1.292,1.524-1.292h28.028c0.538,0,1.036,0.278,1.317,0.737c0.281,0.455,0.305,1.026,0.063,1.506l-3.967,7.858
		C111.967,738.542,107.052,741.566,101.596,741.566z M90.365,726.668c-0.223,4.417,2.147,8.565,6.174,10.6
		c1.588,0.8,3.291,1.208,5.057,1.208c4.281,0,8.14-2.374,10.065-6.192l2.835-5.615H90.365z"/>
</g>
<g>
	<path d="M133.58,598.511c-0.854,0-1.546-0.692-1.546-1.547v-45.412c0-0.854,0.691-1.546,1.546-1.546
		c0.854,0,1.545,0.692,1.545,1.546v45.412C135.126,597.818,134.434,598.511,133.58,598.511z"/>
</g>
<g>
	<path d="M146.157,600.267c-0.854,0-1.546-0.69-1.546-1.545v-20.388c0-0.854,0.691-1.546,1.546-1.546
		c0.855,0,1.546,0.691,1.546,1.546v20.388C147.703,599.576,147.012,600.267,146.157,600.267z"/>
</g>
<g>
	<path d="M117.008,600.267c-0.854,0-1.545-0.69-1.545-1.545v-36.358c0-0.853,0.691-1.546,1.545-1.546
		c0.854,0,1.546,0.692,1.546,1.546v36.358C118.554,599.576,117.863,600.267,117.008,600.267z"/>
</g>
<g>
	<path d="M400,141.405c-0.854,0-1.545-0.691-1.545-1.545V83.053c0-0.854,0.691-1.545,1.545-1.545s1.546,0.691,1.546,1.545v56.807
		C401.546,140.714,400.854,141.405,400,141.405z"/>
</g>
<g>
	<path style="fill:#FFFFFF;" d="M150.033,197.792c0-6.911-5.597-12.514-12.511-12.514c-6.907,0-12.511,5.604-12.511,12.514
		c0,5.295,3.297,9.809,7.952,11.638v17.746h9.124V209.43C146.737,207.606,150.033,203.087,150.033,197.792z"/>
	<path d="M142.087,228.722h-9.124c-0.854,0-1.545-0.691-1.545-1.546v-16.735c-4.864-2.339-7.952-7.197-7.952-12.649
		c0-7.753,6.306-14.06,14.056-14.06s14.057,6.307,14.057,14.06c0,5.457-3.085,10.313-7.946,12.649v16.735
		C143.633,228.03,142.942,228.722,142.087,228.722z M134.509,225.63h6.033v-16.2c0-0.637,0.39-1.208,0.981-1.439
		c4.229-1.658,6.965-5.661,6.965-10.198c0-6.047-4.918-10.969-10.965-10.969c-6.046,0-10.964,4.921-10.964,10.969
		c0,4.531,2.735,8.535,6.97,10.198c0.592,0.232,0.981,0.806,0.981,1.439V225.63z"/>
</g>
<g>
	<rect x="636.284" y="282.228" style="fill:#939598;" width="14.051" height="28.925"/>
</g>
<g>
	<path style="fill:#939598;" d="M661.843,264.047c0,10.63-8.616,19.253-19.249,19.253c-10.634,0-19.255-8.623-19.255-19.253
		c0-10.63,8.621-19.253,19.255-19.253C653.227,244.794,661.843,253.417,661.843,264.047z"/>
	<path d="M642.594,284.845c-11.469,0-20.801-9.329-20.801-20.798c0-11.469,9.332-20.798,20.801-20.798
		c11.467,0,20.795,9.329,20.795,20.798C663.389,275.517,654.06,284.845,642.594,284.845z M642.594,246.341
		c-9.767,0-17.71,7.943-17.71,17.706c0,9.764,7.943,17.706,17.71,17.706c9.76,0,17.704-7.943,17.704-17.706
		C660.298,254.284,652.353,246.341,642.594,246.341z"/>
</g>
<g>
	<path d="M636.284,307.566c-0.854,0-1.546-0.691-1.546-1.546v-23.793c0-0.855,0.691-1.546,1.546-1.546s1.545,0.691,1.545,1.546
		v23.793C637.829,306.875,637.139,307.566,636.284,307.566z"/>
</g>
<g>
	<path d="M650.335,312.699h-6.47c-0.854,0-1.546-0.691-1.546-1.545c0-0.855,0.691-1.546,1.546-1.546h4.924v-27.938
		c0-0.855,0.691-1.546,1.546-1.546c0.853,0,1.546,0.692,1.546,1.546v29.484C651.881,312.007,651.188,312.699,650.335,312.699z"/>
</g>
<g>
	<rect x="695.705" y="414.038" style="fill:#D4CEF5;" width="23.05" height="152.712"/>
</g>
<g>
	<rect x="653.224" y="518.174" style="fill:#D4CEF5;" width="23.051" height="48.576"/>
</g>
<g>
	<path style="fill:#FFE7AD;" d="M710.71,448.905l-45.963-13.525l-45.961,13.525c0,0-3.074,78.319,45.961,92.991
		C713.782,527.225,710.71,448.905,710.71,448.905z"/>
	<path d="M664.747,543.443c-0.147,0-0.299-0.022-0.443-0.065c-49.608-14.845-47.094-93.74-47.064-94.534
		c0.027-0.664,0.474-1.234,1.108-1.422l45.961-13.525c0.29-0.084,0.586-0.084,0.876,0l45.961,13.525
		c0.635,0.188,1.081,0.758,1.108,1.422c0.03,0.794,2.545,79.689-47.063,94.534C665.046,543.422,664.896,543.443,664.747,543.443z
		 M620.308,450.067c-0.109,9.465,0.683,76.675,44.44,90.215c43.759-13.54,44.549-80.75,44.441-90.215l-44.441-13.075
		L620.308,450.067z"/>
</g>
<g>
	<path style="fill:#F1F2F2;" d="M476.873,731.854c-27.732,1.28-52.353-14.196-64.1-37.479c6.406,30.378,33.977,52.54,65.996,51.061
		c35.227-1.624,62.494-31.222,61.445-66.333C533.486,708.158,508.133,730.411,476.873,731.854z"/>
</g>
<polygon style="fill:#F0D8A2;" points="172.031,694.333 160.333,694.333 160.333,635.333 172.031,642.334 "/>
<path style="fill:#F5DCA5;" d="M664.751,450.27v80.249c0,0,32.509-14.309,34.504-70.341L664.751,450.27z"/>
<g>
	<path d="M659.648,508.211c-0.396,0-0.791-0.151-1.093-0.453l-18.917-18.917c-0.604-0.603-0.604-1.582,0-2.185
		c0.604-0.604,1.582-0.604,2.185,0l17.824,17.824l34.963-34.964c0.604-0.603,1.582-0.603,2.187,0c0.603,0.604,0.603,1.582,0,2.186
		l-36.057,36.057C660.439,508.06,660.044,508.211,659.648,508.211z"/>
</g>
</svg>
