<?xml version="1.0" encoding="utf-8"?>
<!-- Generator: Adobe Illustrator 27.5.0, SVG Export Plug-In . SVG Version: 6.00 Build 0)  -->
<svg version="1.1" xmlns="http://www.w3.org/2000/svg" xmlns:xlink="http://www.w3.org/1999/xlink" x="0px" y="0px"
	 viewBox="0 0 2200 1466" style="enable-background:new 0 0 2200 1466;" xml:space="preserve">
<g id="background">
	<rect style="fill:#FFFFFF;" width="2200" height="1466"/>
</g>
<g id="Objects">
	<g>
		<path d="M977.3,941.51c-14.99-10.03-27.88-19.33-38.75-27.61c-28.76-21.91-45.67-55.96-45.67-92.11V635.6
			c0-122.9-74.73-228.36-181.23-273.41c-16.34-6.91-33.43-12.39-51.11-16.3c8.88-12.72,14.1-28.17,14.1-44.83
			c0-43.27-35.21-78.48-78.49-78.48c-43.28,0-78.49,35.21-78.49,78.48c0,16.67,5.23,32.14,14.12,44.86
			c-133.14,29.66-232.36,149.37-232.36,291.37V821.8c0,36.15-16.91,70.19-45.67,92.1c-10.87,8.28-23.76,17.58-38.75,27.61
			c-10.61,7.09-16.95,19.02-16.95,31.77v78.1c0,15.59,9.45,29.65,23.92,35.47c37.3,15.01,132.4,35.14,374.18,35.14
			s336.88-20.13,374.18-35.14c14.47-5.82,23.92-19.88,23.92-35.47v-78.1C994.25,960.53,987.91,948.6,977.3,941.51z M596.15,258.33
			c23.56,0,42.74,19.17,42.74,42.73c0,16.85-9.8,31.44-23.99,38.4c-6.55-0.41-13.15-0.61-19.8-0.59
			c-5.94,0.03-11.84,0.23-17.69,0.59c-14.19-6.95-24-21.55-24-38.4C553.41,277.5,572.59,258.33,596.15,258.33z M931.01,982.32
			c-54.56,13.75-110.86,19.16-166.84,23.17c-48.54,3.27-98.4,4.69-147.02,4.98c-48.61,0.36-98.51-0.4-147.03-2.62
			c-62.92-3.1-126.48-7.91-188.25-20.67c-4.86-1.06-15.69-3.59-20.58-4.86c-2.18-0.54-3.51-2.74-2.97-4.91
			c0.52-2.08,2.54-3.39,4.62-3.03c13.42,2.41,27.8,4.54,41.26,6.12c30.99,3.76,62.34,6.09,93.5,7.77
			c130.4,6.23,261.27,6.09,391.69,0.31c43.28-2.36,86.77-5.57,129.61-12.4l10.24-1.78l0.1-0.02c2.21-0.38,4.31,1.1,4.69,3.3
			C934.4,979.79,933.05,981.81,931.01,982.32z"/>
		<path d="M238.56,517.855c1.719,0.436,3.442,0.644,5.138,0.644c9.319,0,17.807-6.291,20.201-15.737
			c0.262-1.034,27.377-104.013,128.929-157.76c10.18-5.388,14.065-18.008,8.677-28.189c-5.388-10.18-18.008-14.065-28.189-8.677
			c-27.227,14.41-52.046,33.045-73.769,55.389c-17.308,17.803-32.686,37.977-45.707,59.963
			c-22.26,37.586-30.054,67.76-30.375,69.026C220.638,503.681,227.395,515.026,238.56,517.855z"/>
		<path d="M799.471,345.003c23.108,12.23,44.218,28.028,62.745,46.955c14.944,15.268,28.276,32.615,39.623,51.562
			c19.465,32.5,26.446,58.805,26.572,59.288c2.41,9.422,10.885,15.692,20.19,15.692c1.695,0,3.42-0.209,5.138-0.644
			c11.166-2.83,17.923-14.174,15.093-25.34c-0.321-1.266-8.115-31.44-30.375-69.026c-13.021-21.986-28.399-42.16-45.707-59.963
			c-21.723-22.344-46.542-40.979-73.769-55.389c-10.181-5.389-22.801-1.503-28.189,8.677
			C785.406,326.994,789.291,339.615,799.471,345.003z"/>
		<path d="M596.144,1140.464c-34.882,0-66.714-0.417-95.756-1.18c-0.22,2.652-0.334,5.333-0.334,8.044
			c0,53.068,43.022,96.096,96.09,96.096c53.074,0,96.096-43.028,96.096-96.096c0-2.711-0.113-5.393-0.334-8.044
			C662.864,1140.047,631.032,1140.464,596.144,1140.464z"/>
	</g>
	<g>
		<path d="M1991.115,932.369c-13.455-8.998-26.31-18.154-38.206-27.217c-25.885-19.715-41.339-50.878-41.339-83.36V635.604
			c0-61.662-18.175-121.158-52.561-172.057c-33.549-49.661-80.361-88.211-135.379-111.482c-12.516-5.292-25.45-9.764-38.608-13.354
			c5.465-11.724,8.307-24.505,8.307-37.648c0-49.339-40.14-89.479-89.479-89.479s-89.479,40.14-89.479,89.479
			c0,13.166,2.852,25.969,8.336,37.71c-61.635,16.971-117.272,53.444-157.893,103.801c-21.781,27.002-38.758,57.192-50.458,89.731
			c-12.099,33.645-18.232,68.965-18.232,104.981v184.508c0,32.481-15.453,63.644-41.337,83.359
			c-11.907,9.07-24.76,18.227-38.202,27.215c-13.669,9.142-21.83,24.436-21.83,40.912v78.096c0,20.215,12.094,38.143,30.811,45.671
			c34.107,13.72,108.846,29.643,272.367,34.468c-0.773,5.218-1.174,10.5-1.174,15.809c0,59.05,48.04,107.09,107.09,107.09
			c59.044,0,107.079-48.04,107.079-107.09c0-5.309-0.401-10.591-1.174-15.809c163.529-4.825,238.273-20.748,272.381-34.468
			c18.718-7.528,30.812-25.456,30.812-45.672v-78.095C2012.945,956.805,2004.784,941.511,1991.115,932.369z M1688.944,1147.325
			c0,46.929-38.175,85.107-85.097,85.107c-46.929,0-85.107-38.179-85.107-85.107c0-5.131,0.463-10.227,1.367-15.234
			c25.801,0.575,53.656,0.885,83.74,0.885c30.08,0,57.932-0.311,83.731-0.885
			C1688.481,1137.098,1688.944,1142.194,1688.944,1147.325z M1990.963,1051.376c0,11.193-6.686,21.115-17.032,25.277
			c-74.281,29.879-263.753,34.341-370.084,34.341c-106.33,0-295.8-4.462-370.077-34.341c-10.347-4.162-17.032-14.083-17.032-25.276
			v-78.096c0-9.122,4.512-17.585,12.067-22.639c13.815-9.238,27.039-18.658,39.303-28c31.308-23.849,49.999-61.548,49.999-100.848
			V637.287c0-33.473,5.698-66.291,16.936-97.542c10.87-30.228,26.644-58.277,46.883-83.368
			c40.646-50.388,97.449-85.805,159.947-99.727c3.58-0.797,6.526-3.328,7.854-6.746c1.329-3.418,0.865-7.274-1.235-10.28
			c-7.94-11.358-12.138-24.692-12.138-38.561c0-37.218,30.279-67.497,67.497-67.497s67.496,30.279,67.496,67.497
			c0,13.855-4.189,27.178-12.115,38.53c-2.101,3.008-2.562,6.866-1.229,10.285c1.332,3.418,4.283,5.946,7.865,6.739
			c16.817,3.722,33.372,9.002,49.2,15.695c51.089,21.61,94.563,57.414,125.727,103.541c31.92,47.25,48.793,102.492,48.793,159.751
			v186.188c0,39.301,18.691,77.002,50.001,100.848c12.253,9.335,25.478,18.756,39.306,28.003
			c7.557,5.054,12.068,13.517,12.068,22.639V1051.376z"/>
		<path d="M1580.278,349.334c1.508,0.739,3.162,1.121,4.836,1.121c0.229,0,0.459-0.007,0.688-0.021
			c5.694-0.357,11.425-0.548,17.033-0.568c6.313-0.021,12.732,0.167,19.076,0.563c1.913,0.119,3.809-0.261,5.521-1.101
			c18.312-8.977,30.144-27.921,30.144-48.264c0-29.625-24.102-53.727-53.727-53.727c-29.626,0-53.728,24.102-53.728,53.727
			C1550.123,321.412,1561.96,340.359,1580.278,349.334z M1603.851,269.319c17.504,0,31.744,14.241,31.744,31.744
			c0,11.302-5.864,21.514-15.473,27.244c-5.789-0.302-11.615-0.444-17.362-0.424c-5.003,0.017-10.094,0.161-15.176,0.429
			c-9.612-5.73-15.479-15.943-15.479-27.249C1572.105,283.56,1586.347,269.319,1603.851,269.319z"/>
		<path d="M1243.561,528.51c2.568,0.651,5.206,0.981,7.839,0.981c14.581,0,27.27-9.88,30.847-23.991
			c0.065-0.251,6.764-25.477,25.649-56.843c17.009-28.25,47.779-67.479,97.775-93.94c7.519-3.979,13.037-10.648,15.54-18.778
			c2.503-8.131,1.689-16.749-2.29-24.267c-3.979-7.519-10.647-13.038-18.778-15.54c-8.131-2.503-16.749-1.689-24.267,2.29
			c-28.242,14.947-53.983,34.274-76.508,57.442c-17.911,18.423-33.819,39.291-47.283,62.024
			c-23.036,38.896-31.233,70.593-31.572,71.928C1216.199,506.838,1226.539,524.197,1243.561,528.51z M1241.82,495.22
			c0.306-1.205,7.738-29.927,29.179-66.13c12.58-21.241,27.429-40.722,44.131-57.903c20.922-21.52,44.819-39.464,71.029-53.336
			c1.442-0.764,3.016-1.151,4.603-1.151c0.975,0,1.955,0.146,2.914,0.441c2.518,0.775,4.583,2.484,5.815,4.814
			c1.232,2.329,1.484,4.998,0.71,7.516c-0.775,2.518-2.485,4.584-4.813,5.816c-105.86,56.026-134.169,163.697-134.441,164.773
			c-1.111,4.384-5.037,7.446-9.547,7.446c-0.813,0-1.634-0.103-2.438-0.307C1243.688,505.865,1240.485,500.488,1241.82,495.22z"/>
		<path d="M1802.029,354.718c22.104,11.697,42.301,26.813,60.032,44.928c14.344,14.654,27.145,31.315,38.048,49.521
			c18.515,30.912,25.303,56.175,25.354,56.365c3.608,14.107,16.29,23.959,30.839,23.959c2.633,0,5.27-0.33,7.838-0.981
			c17.021-4.313,27.361-21.672,23.047-38.699c-0.338-1.33-8.535-33.026-31.571-71.923c-13.464-22.733-29.372-43.601-47.283-62.024
			c-22.524-23.168-48.266-42.495-76.508-57.442c-7.519-3.98-16.137-4.794-24.268-2.291c-8.13,2.503-14.798,8.022-18.777,15.541
			C1780.565,327.193,1786.509,346.503,1802.029,354.718z M1808.209,321.956c1.232-2.329,3.298-4.039,5.816-4.813
			c0.958-0.295,1.938-0.441,2.913-0.441c1.587,0,3.16,0.387,4.603,1.151c26.21,13.872,50.107,31.816,71.029,53.336
			c16.703,17.181,31.551,36.662,44.131,57.903c21.44,36.203,28.873,64.925,29.178,66.125c1.336,5.272-1.867,10.649-7.14,11.985
			c-0.805,0.204-1.625,0.307-2.438,0.307c-4.5,0-8.424-3.053-9.555-7.472c-0.297-1.141-7.514-28.329-27.778-62.164
			c-11.788-19.683-25.649-37.718-41.198-53.603c-19.321-19.74-41.345-36.22-65.458-48.98
			C1807.506,332.744,1805.665,326.763,1808.209,321.956z"/>
		<path d="M1936.74,973.489c-13.354,2.235-27.69,4.315-41.135,5.786c-61.975,6.963-124.953,9.118-187.289,10.486
			c-65.694,1.208-132.799,1.15-198.5,0.21c-58.863-1.128-118.426-3.053-177.04-8.509c-17.035-1.639-34.661-3.709-51.583-6.294
			l-10.239-1.679c-2.554-0.485-5.103,1.095-5.761,3.662c-0.686,2.669,0.921,5.39,3.591,6.076c0,0,10.269,2.64,10.269,2.64
			c23.939,5.793,48.426,9.804,72.786,13.151c83.511,10.762,167.958,13.421,252.008,13.646c98.042-0.55,196.904-3.198,293.733-20.242
			c13.533-2.45,27.961-5.627,41.33-9.196c2.466-0.642,4.103-3.076,3.682-5.641C1942.148,974.822,1939.483,972.97,1936.74,973.489z"
			/>
	</g>
</g>
</svg>
